<svg xmlns="http://www.w3.org/2000/svg" viewBox="0 0 1200 900" role="img" aria-label="Productivity workspace illustration"><defs><linearGradient id="bg" x1="0" y1="0" x2="1" y2="1"><stop stop-color="#fff7ec"/><stop offset="1" stop-color="#e8f0ff"/></linearGradient><linearGradient id="card" x1="0" y1="0" x2="1" y2="1"><stop stop-color="#ffffff"/><stop offset="1" stop-color="#f4efe8"/></linearGradient><filter id="s" x="-20%" y="-20%" width="140%" height="140%"><feDropShadow dx="0" dy="24" stdDeviation="28" flood-color="#705f4c" flood-opacity=".16"/></filter></defs><rect width="1200" height="900" rx="72" fill="url(#bg)"/><circle cx="1000" cy="145" r="108" fill="#ffe0b8" opacity=".62"/><circle cx="180" cy="760" r="150" fill="#d8e7ff" opacity=".75"/><g filter="url(#s)"><rect x="180" y="190" width="840" height="520" rx="58" fill="url(#card)"/><rect x="240" y="255" width="315" height="250" rx="34" fill="#f7dcae"/><rect x="610" y="255" width="315" height="70" rx="28" fill="#b7d7c6"/><rect x="610" y="355" width="315" height="70" rx="28" fill="#d4c8f6"/><rect x="610" y="455" width="240" height="70" rx="28" fill="#f1bfc8"/><path d="M288 565h570" stroke="#cabba8" stroke-width="18" stroke-linecap="round" opacity=".5"/><path d="M288 620h405" stroke="#cabba8" stroke-width="18" stroke-linecap="round" opacity=".38"/><circle cx="382" cy="380" r="76" fill="#fff8ed"/><path d="M382 330v56l42 28" fill="none" stroke="#8a6f55" stroke-width="18" stroke-linecap="round" stroke-linejoin="round"/></g><path d="M165 165c50 18 83 52 101 102" stroke="#e9b872" stroke-width="18" stroke-linecap="round" fill="none" opacity=".65"/><path d="M960 705c-54-14-91-45-112-94" stroke="#9abda9" stroke-width="18" stroke-linecap="round" fill="none" opacity=".75"/></svg>