<svg xmlns="http://www.w3.org/2000/svg" viewBox="0 0 1200 900"><defs><linearGradient id="bg" x1="0" y1="0" x2="1" y2="1"><stop stop-color="#f6fff9"/><stop offset="1" stop-color="#fff3f0"/></linearGradient><filter id="s"><feDropShadow dx="0" dy="22" stdDeviation="26" flood-color="#4e6758" flood-opacity=".15"/></filter></defs><rect width="1200" height="900" rx="72" fill="url(#bg)"/><g filter="url(#s)"><rect x="180" y="195" width="250" height="160" rx="42" fill="#ffffff"/><rect x="475" y="370" width="250" height="160" rx="42" fill="#ffffff"/><rect x="770" y="545" width="250" height="160" rx="42" fill="#ffffff"/><rect x="225" y="250" width="160" height="22" rx="11" fill="#ffd0b8"/><rect x="225" y="296" width="110" height="22" rx="11" fill="#d3c7ff"/><rect x="520" y="425" width="160" height="22" rx="11" fill="#b9e8d0"/><rect x="520" y="471" width="110" height="22" rx="11" fill="#ffd98f"/><rect x="815" y="600" width="160" height="22" rx="11" fill="#bcd8ff"/><rect x="815" y="646" width="110" height="22" rx="11" fill="#f4c1d1"/></g><g fill="none" stroke="#8fb59d" stroke-width="22" stroke-linecap="round" stroke-linejoin="round"><path d="M430 285c95 0 95 165 45 165"/><path d="M725 460c95 0 95 165 45 165"/><path d="M470 450l35-34M470 450l38 30M765 625l35-34M765 625l38 30"/></g><circle cx="1038" cy="150" r="88" fill="#ffd8c0" opacity=".6"/><circle cx="160" cy="725" r="118" fill="#cae2ff" opacity=".58"/></svg>