<svg xmlns="http://www.w3.org/2000/svg" width="1200" height="520" viewBox="0 0 1200 520">
  <g fill="none" stroke="#6b7280" stroke-width="1.2" stroke-linecap="round" stroke-linejoin="round" opacity="0.34">
    <path d="M100 70c20-20 54-16 65 8 24-7 48 11 48 36H92c-9-16-6-31 8-44z"/>
    <path d="M265 96a45 45 0 1 0 90 0a45 45 0 1 0-90 0"/>
    <path d="M430 55c54 20 78 52 66 98-39-6-73-32-66-98z"/>
    <path d="M592 54c42 24 63 63 57 117-46-13-71-51-57-117z"/>
    <path d="M770 54l22 57 60 3-48 36 17 58-50-34-51 33 17-58-47-37 59-2z"/>
    <path d="M985 45h92l39 40v82h-131zM1010 168v54M1082 168v54M969 222h162"/>
    <path d="M82 295l43-79 45 79zM205 295l65-97 65 97zM380 290c85-80 160-80 235 0"/>
    <path d="M680 206h80v84h-80zM720 206v84M680 248h80"/>
    <path d="M860 295c15-78 86-101 140-48 33 33 26 85-12 111"/>
    <path d="M120 410v80M90 490h60M120 410c-42-12-49-65 0-82 47 19 39 70 0 82z"/>
    <path d="M235 488c8-65 32-97 72-125 40 28 64 60 72 125"/>
    <path d="M480 438c8-56 50-85 113-87 53 12 91 45 113 99"/>
    <path d="M805 410c-24-28-22-64 8-85 29 15 36 50 13 85h-21zM815 410v78"/>
    <path d="M1000 376c42 0 75 25 75 56 0 31-33 56-75 56s-75-25-75-56c0-31 33-56 75-56z"/>
    <path d="M70 170c30 24 68 24 98 0M230 172c36 30 82 30 118 0M420 170c39 36 93 35 132 0"/>
    <path d="M600 322c30 0 30 30 60 30s30-30 60-30 30 30 60 30"/>
    <path d="M905 116h100M900 138h115M895 160h130"/>
  </g>
</svg>
