<svg xmlns="http://www.w3.org/2000/svg" viewBox="0 0 1200 900"><defs><linearGradient id="bg" x1="0" y1="0" x2="1" y2="1"><stop stop-color="#fff8f6"/><stop offset="1" stop-color="#edf7ff"/></linearGradient><filter id="s"><feDropShadow dx="0" dy="22" stdDeviation="26" flood-color="#5c4f68" flood-opacity=".14"/></filter></defs><rect width="1200" height="900" rx="72" fill="url(#bg)"/><g stroke="#cabdd8" stroke-width="16" stroke-linecap="round" opacity=".72"><path d="M600 450L360 285M600 450l270-135M600 450l-250 220M600 450l300 210M600 450v-245M600 450v255"/></g><g filter="url(#s)"><circle cx="600" cy="450" r="102" fill="#ffffff"/><circle cx="360" cy="285" r="72" fill="#ffd7ba"/><circle cx="870" cy="315" r="72" fill="#c2e8d2"/><circle cx="350" cy="670" r="72" fill="#cfe0ff"/><circle cx="900" cy="660" r="72" fill="#e0d1ff"/><circle cx="600" cy="205" r="64" fill="#ffe7a9"/><circle cx="600" cy="705" r="64" fill="#f4bfd0"/><g fill="none" stroke="#705e83" stroke-width="16" stroke-linecap="round"><path d="M560 452h80M600 412v80"/><path d="M330 285h60M840 315h60M320 670h60M870 660h60M570 205h60M570 705h60" opacity=".52"/></g></g><circle cx="126" cy="150" r="86" fill="#e8d8ff" opacity=".55"/><circle cx="1060" cy="760" r="110" fill="#ffe0bc" opacity=".48"/></svg>