<svg xmlns="http://www.w3.org/2000/svg" viewBox="0 0 1200 900"><defs><linearGradient id="bg" x1="0" y1="0" x2="1" y2="1"><stop stop-color="#f8fbf5"/><stop offset="1" stop-color="#f4e7ff"/></linearGradient><filter id="s"><feDropShadow dx="0" dy="22" stdDeviation="25" flood-color="#4f4b63" flood-opacity=".16"/></filter></defs><rect width="1200" height="900" rx="72" fill="url(#bg)"/><path d="M95 250c150-170 355-185 520-108 220 104 314-20 485 98v528H95z" fill="#ffffff" opacity=".42"/><g filter="url(#s)"><rect x="168" y="156" width="864" height="588" rx="58" fill="#fff"/><rect x="230" y="235" width="230" height="430" rx="34" fill="#f9efe6"/><rect x="485" y="235" width="230" height="430" rx="34" fill="#eef6ff"/><rect x="740" y="235" width="230" height="430" rx="34" fill="#f0f8ef"/><rect x="260" y="285" width="170" height="96" rx="24" fill="#ffc9a8"/><rect x="260" y="410" width="145" height="96" rx="24" fill="#f6d8ec"/><rect x="515" y="285" width="170" height="96" rx="24" fill="#bed7ff"/><rect x="515" y="410" width="170" height="96" rx="24" fill="#d8cbff"/><rect x="515" y="535" width="125" height="96" rx="24" fill="#b9ead3"/><rect x="770" y="285" width="170" height="96" rx="24" fill="#d3eebd"/><rect x="770" y="410" width="130" height="96" rx="24" fill="#ffe2aa"/></g><circle cx="1035" cy="150" r="86" fill="#c9dfff" opacity=".65"/><circle cx="170" cy="765" r="102" fill="#ffd8c2" opacity=".65"/></svg>