<svg xmlns="http://www.w3.org/2000/svg" viewBox="0 0 1200 900"><defs><linearGradient id="bg" x1="0" y1="0" x2="1" y2="1"><stop stop-color="#f3f8ff"/><stop offset="1" stop-color="#fff1e5"/></linearGradient><filter id="s"><feDropShadow dx="0" dy="24" stdDeviation="30" flood-color="#4d6073" flood-opacity=".15"/></filter></defs><rect width="1200" height="900" rx="72" fill="url(#bg)"/><g filter="url(#s)"><rect x="210" y="160" width="780" height="585" rx="60" fill="#fff"/><rect x="210" y="160" width="780" height="128" rx="60" fill="#c9ddff"/><rect x="210" y="235" width="780" height="70" fill="#c9ddff"/><g opacity=".95"><circle cx="370" cy="225" r="18" fill="#fff"/><circle cx="830" cy="225" r="18" fill="#fff"/><path d="M370 145v80M830 145v80" stroke="#7f96bd" stroke-width="20" stroke-linecap="round"/></g><g fill="#f3f0ea"><rect x="275" y="355" width="105" height="84" rx="22"/><rect x="420" y="355" width="105" height="84" rx="22"/><rect x="565" y="355" width="105" height="84" rx="22"/><rect x="710" y="355" width="105" height="84" rx="22"/><rect x="275" y="480" width="105" height="84" rx="22"/><rect x="420" y="480" width="105" height="84" rx="22"/><rect x="565" y="480" width="105" height="84" rx="22"/><rect x="710" y="480" width="105" height="84" rx="22"/><rect x="275" y="605" width="105" height="84" rx="22"/><rect x="420" y="605" width="105" height="84" rx="22"/><rect x="565" y="605" width="105" height="84" rx="22"/><rect x="710" y="605" width="105" height="84" rx="22"/></g><rect x="420" y="480" width="105" height="84" rx="22" fill="#ffd28f"/><rect x="565" y="355" width="105" height="84" rx="22" fill="#b7e3cf"/><rect x="710" y="605" width="105" height="84" rx="22" fill="#d4c6ff"/></g><path d="M130 650c130-18 198-96 210-235" stroke="#ffc6b1" stroke-width="24" fill="none" stroke-linecap="round" opacity=".7"/><path d="M1035 260c-82 33-126 92-132 177" stroke="#9ec4ae" stroke-width="24" fill="none" stroke-linecap="round" opacity=".7"/></svg>